<svg width="256" height="256" viewBox="0 0 256 256" fill="none" xmlns="http://www.w3.org/2000/svg">
<g clip-path="url(#clip0_1_2)">
<circle cx="128" cy="128" r="128" fill="#FF135B"/>
<path fill-rule="evenodd" clip-rule="evenodd" d="M43 109.5C43 103.977 47.4772 99.5 53 99.5H89.5C95.0228 99.5 99.5 95.0229 99.5 89.5V53C99.5 47.4771 103.977 43 109.5 43H146.5C152.023 43 156.5 47.4772 156.5 53V89.5C156.5 95.0228 160.977 99.5 166.5 99.5H204C209.523 99.5 214 103.977 214 109.5V146.5C214 152.023 209.523 156.5 204 156.5H166.5C160.977 156.5 156.5 160.977 156.5 166.5V204C156.5 209.523 152.023 214 146.5 214H109.5C103.977 214 99.5 209.523 99.5 204V166.5C99.5 160.977 95.0229 156.5 89.5 156.5H53C47.4772 156.5 43 152.023 43 146.5L43 109.5ZM129.125 57.2692C128.73 56.6689 127.849 56.6689 127.454 57.2692L113.02 79.2002C112.582 79.8652 113.059 80.75 113.855 80.75H142.724C143.52 80.75 143.996 79.8652 143.559 79.2002L129.125 57.2692ZM148 128C148 139.046 139.046 148 128 148C116.954 148 108 139.046 108 128C108 116.954 116.954 108 128 108C139.046 108 148 116.954 148 128ZM57.2692 129.125C56.6689 128.73 56.6689 127.849 57.2692 127.454L79.2002 113.02C79.8652 112.582 80.75 113.059 80.75 113.855V142.724C80.75 143.52 79.8652 143.996 79.2002 143.559L57.2692 129.125ZM198.481 129.125C199.081 128.73 199.081 127.849 198.481 127.454L176.55 113.02C175.885 112.582 175 113.059 175 113.855V142.724C175 143.52 175.885 143.996 176.55 143.559L198.481 129.125ZM129.125 198.481C128.73 199.081 127.849 199.081 127.454 198.481L113.02 176.55C112.582 175.885 113.059 175 113.855 175H142.724C143.52 175 143.996 175.885 143.559 176.55L129.125 198.481Z" fill="white"/>
</g>
<defs>
<clipPath id="clip0_1_2">
<rect width="256" height="256" fill="white"/>
</clipPath>
</defs>
</svg>
